<svg width="37" height="37" viewBox="0 0 37 37" fill="none" xmlns="http://www.w3.org/2000/svg">
<path fill-rule="evenodd" clip-rule="evenodd" d="M18.8357 0.426919C19.1263 0.166092 19.5106 0.0293734 19.9041 0.0469112C28.2212 0.295891 35.1722 6.33369 36.432 14.4034C36.44 14.4516 36.44 14.5008 36.432 14.5489C36.4591 14.9308 36.3301 15.3075 36.0734 15.5957C35.8167 15.8839 35.4536 16.06 35.0643 16.0848L21.0905 17.0064C20.6284 17.0473 20.1701 16.8953 19.8282 16.5875C19.4863 16.2798 19.2925 15.8449 19.2944 15.3896L18.3551 1.66364V1.4373C18.3722 1.05126 18.5451 0.687746 18.8357 0.426919ZM17.8772 20.5954L29.9889 19.8194L30.0713 19.8518C30.5914 19.8603 31.0867 20.0712 31.4483 20.438C31.8099 20.8049 32.0081 21.2977 31.9993 21.808C31.522 28.7628 26.4231 34.5737 19.4841 36.0708C12.5452 37.5678 5.43191 34.3916 2.02486 28.2749C1.02304 26.5132 0.389961 24.5729 0.162784 22.5678C0.0746727 21.9737 0.036095 21.3736 0.0474341 20.7733C0.0703986 13.3779 5.33565 6.99469 12.7029 5.43061C13.5948 5.26368 14.489 5.70897 14.8781 6.51381C14.975 6.65986 15.0525 6.81741 15.1088 6.98266C15.2469 9.11454 15.3902 11.2262 15.5328 13.329C15.6455 14.9896 15.7577 16.6447 15.8668 18.2997C15.8612 18.6896 15.9225 19.0776 16.0481 19.4476C16.3438 20.1755 17.0797 20.6373 17.8772 20.5954Z" fill="black"/>
</svg>
