<svg width="44" height="44" viewBox="0 0 44 44" fill="none" xmlns="http://www.w3.org/2000/svg">
<g id="Iconly/Bold/Graph">
<g id="Graph">
<path id="Graph_2" fill-rule="evenodd" clip-rule="evenodd" d="M22.4295 4.02067C22.72 3.75984 23.1044 3.62312 23.4979 3.64066C31.815 3.88964 38.766 9.92744 40.0258 17.9972C40.0338 18.0454 40.0338 18.0945 40.0258 18.1427C40.0529 18.5245 39.9239 18.9012 39.6672 19.1894C39.4105 19.4777 39.0474 19.6537 38.6581 19.6786L24.6843 20.6001C24.2222 20.6411 23.7639 20.489 23.422 20.1813C23.0801 19.8735 22.8863 19.4386 22.8882 18.9834L21.9489 5.25739V5.03105C21.966 4.64501 22.1389 4.2815 22.4295 4.02067ZM21.471 24.1892L33.5827 23.4132L33.6651 23.4455C34.1852 23.454 34.6805 23.6649 35.0421 24.0318C35.4037 24.3987 35.6019 24.8915 35.5931 25.4017C35.1158 32.3565 30.0169 38.1675 23.0779 39.6645C16.139 41.1616 9.02569 37.9854 5.61864 31.8686C4.61682 30.1069 3.98374 28.1666 3.75656 26.1616C3.66845 25.5675 3.62988 24.9673 3.64121 24.367C3.66418 16.9717 8.92943 10.5884 16.2967 9.02436C17.1886 8.85743 18.0828 9.30272 18.4719 10.1076C18.5687 10.2536 18.6463 10.4112 18.7026 10.5764C18.8407 12.7083 18.9839 14.82 19.1266 16.9228C19.2392 18.5834 19.3515 20.2384 19.4606 21.8935C19.455 22.2833 19.5162 22.6714 19.6419 23.0413C19.9376 23.7692 20.6734 24.231 21.471 24.1892Z" fill="white"/>
</g>
</g>
</svg>
