<svg width="40" height="40" viewBox="0 0 40 40" fill="none" xmlns="http://www.w3.org/2000/svg">
<path d="M19.6953 3.63347C19.6953 1.62676 21.3221 0 23.3288 0H36.3665C38.3732 0 40 1.62676 40 3.63347C40 5.64018 38.3732 7.26693 36.3665 7.26693H23.3288C21.3221 7.26693 19.6953 5.64018 19.6953 3.63347Z" fill="#FF6B00"/>
<path d="M0.0318604 35.4798C0.0318604 33.4731 1.65862 31.8463 3.66533 31.8463H12.4284C14.4351 31.8463 16.0619 33.4731 16.0619 35.4798C16.0619 37.4865 14.4351 39.1132 12.4284 39.1132H3.66533C1.65862 39.1132 0.0318604 37.4865 0.0318604 35.4798Z" fill="#FF6B00"/>
<path d="M22.6277 0H11.5848C5.20171 0 0.0247565 5.16983 0.0159752 11.5529C0.00716201 17.9591 5.20599 23.1527 11.6122 23.1376L28.3326 23.098C30.7462 23.0923 32.7083 25.0426 32.7171 27.4562C32.7259 29.8782 30.765 31.8463 28.343 31.8463H13.3702C9.66872 31.8463 8.33728 36.7339 11.5273 38.6112C12.0858 38.9399 12.7221 39.1132 13.3702 39.1132H28.3068C34.6873 39.1132 39.8572 33.9361 39.8484 27.5557C39.8396 21.1876 34.6749 16.03 28.3068 16.03H11.5741C9.15452 16.03 7.19294 14.0687 7.19258 11.6491C7.19223 9.22901 9.15401 7.26693 11.5741 7.26693H22.6277C26.5638 7.26693 27.6901 1.88208 24.0838 0.304567C23.6247 0.103696 23.1289 0 22.6277 0Z" fill="url(#paint0_linear_37_10)"/>
<defs>
<linearGradient id="paint0_linear_37_10" x1="20" y1="0" x2="20" y2="39.1132" gradientUnits="userSpaceOnUse">
<stop stop-color="#191919"/>
<stop offset="1" stop-opacity="0"/>
</linearGradient>
</defs>
</svg>
